<svg xmlns="http://www.w3.org/2000/svg" xmlns:xlink="http://www.w3.org/1999/xlink" width="200" zoomAndPan="magnify" viewBox="0 0 150 74.999997" height="100" preserveAspectRatio="xMidYMid meet" version="1.0"><defs><g/><clipPath id="a4cf5f5f90"><path d="M 0 14.515625 L 55.476562 14.515625 L 55.476562 60.265625 L 0 60.265625 Z M 0 14.515625 " clip-rule="nonzero"/></clipPath></defs><g clip-path="url(#a4cf5f5f90)"><path fill="#000000" d="M 9.832031 24.917969 L 3.601562 24.917969 C 4.308594 23.8125 5.113281 22.785156 6.042969 21.890625 C 8.4375 19.492188 11.5 17.777344 14.914062 17.050781 C 13.542969 18.035156 12.316406 19.492188 11.324219 21.382812 C 10.757812 22.417969 10.25 23.613281 9.832031 24.917969 Z M 17.851562 24.917969 L 10.738281 24.917969 C 11.101562 23.765625 11.566406 22.71875 12.085938 21.757812 C 13.675781 18.796875 15.832031 16.894531 18.171875 16.695312 L 18.171875 24.332031 C 18.050781 24.519531 17.953125 24.71875 17.851562 24.917969 Z M 19.886719 24.917969 L 19.035156 24.917969 L 19.035156 16.695312 C 20.449219 16.816406 21.820312 17.546875 23.023438 18.796875 C 21.875 19.703125 20.824219 20.730469 19.894531 21.878906 L 19.894531 24.917969 Z M 28.25 24.917969 L 27.363281 24.917969 C 26.945312 23.625 26.457031 22.417969 25.875 21.371094 C 24.867188 19.492188 23.652344 18.023438 22.28125 17.039062 C 23.066406 17.203125 23.820312 17.425781 24.558594 17.703125 C 24.4375 17.777344 24.316406 17.84375 24.214844 17.921875 C 24.921875 18.410156 25.363281 18.929688 25.363281 18.929688 L 25.363281 18.949219 L 25.386719 18.949219 L 25.386719 18.972656 C 25.851562 19.613281 26.269531 20.296875 26.636719 20.949219 C 27.175781 21.957031 27.617188 22.984375 27.984375 24.054688 C 28.050781 24.199219 28.148438 24.539062 28.25 24.917969 Z M 27.628906 25.765625 L 34.117188 25.765625 C 34.257812 26.03125 34.414062 26.332031 34.558594 26.617188 L 28.734375 26.617188 C 29.277344 28.75 29.542969 30.949219 29.617188 33.148438 C 29.640625 33.414062 29.640625 33.710938 29.640625 34 L 28.789062 34 C 28.757812 31.027344 28.347656 28.242188 27.628906 25.765625 Z M 19.023438 25.765625 L 26.714844 25.765625 C 26.8125 26.03125 26.878906 26.332031 26.957031 26.617188 L 19.863281 26.617188 L 19.863281 34 L 19.011719 34 L 19.011719 25.765625 Z M 10.472656 25.765625 L 18.183594 25.765625 L 18.183594 26.617188 L 17.035156 26.617188 C 16.050781 28.894531 15.5 31.390625 15.445312 34 L 9.269531 34 C 9.289062 31.003906 9.730469 28.207031 10.472656 25.765625 Z M 3.082031 25.765625 L 9.566406 25.765625 C 8.859375 28.242188 8.4375 31.027344 8.417969 34.007812 L 0.828125 34.007812 C 0.902344 31.003906 1.710938 28.207031 3.082031 25.765625 Z M 9.566406 43.101562 L 3.082031 43.101562 C 1.710938 40.628906 0.902344 37.84375 0.828125 34.859375 L 8.40625 34.859375 C 8.4375 37.820312 8.847656 40.636719 9.566406 43.101562 Z M 17.410156 43.101562 L 10.472656 43.101562 C 9.742188 40.628906 9.300781 37.84375 9.277344 34.859375 L 18.183594 34.859375 L 18.183594 35.710938 L 15.464844 35.710938 C 15.632812 38.339844 16.316406 40.835938 17.410156 43.101562 Z M 19.886719 43.101562 L 19.035156 43.101562 L 19.035156 34.859375 L 27.929688 34.859375 C 27.929688 35.125 27.929688 35.421875 27.90625 35.710938 L 19.886719 35.710938 Z M 28.515625 43.101562 L 27.628906 43.101562 C 28.335938 40.628906 28.757812 37.820312 28.777344 34.859375 L 36.359375 34.859375 C 36.335938 35.125 36.335938 35.421875 36.3125 35.710938 L 29.617188 35.710938 C 29.542969 37.886719 29.277344 40.085938 28.734375 42.242188 C 28.679688 42.417969 28.613281 42.738281 28.515625 43.101562 Z M 27.363281 43.964844 L 33.605469 43.964844 C 33.410156 44.230469 33.21875 44.527344 33.023438 44.816406 L 27.984375 44.816406 C 27.617188 45.863281 27.175781 46.890625 26.636719 47.898438 C 26.269531 48.582031 25.828125 49.289062 25.363281 49.929688 C 24.976562 50.316406 24.558594 50.636719 24.140625 50.914062 C 24.28125 50.992188 24.402344 51.078125 24.558594 51.179688 C 23.828125 51.421875 23.066406 51.644531 22.28125 51.820312 C 23.652344 50.835938 24.878906 49.378906 25.875 47.488281 C 26.457031 46.429688 26.945312 45.234375 27.363281 43.964844 Z M 19.023438 43.964844 L 26.449219 43.964844 C 26.347656 44.230469 26.25 44.527344 26.148438 44.816406 L 19.863281 44.816406 L 19.863281 46.96875 C 20.792969 48.117188 21.839844 49.144531 22.988281 50.050781 C 21.796875 51.300781 20.425781 52.050781 19 52.183594 L 19 43.964844 Z M 10.738281 43.964844 L 18.171875 43.964844 L 18.171875 52.183594 C 15.832031 51.964844 13.675781 50.050781 12.085938 47.101562 C 11.566406 46.140625 11.101562 45.089844 10.738281 43.964844 Z M 3.601562 43.964844 L 9.832031 43.964844 C 10.25 45.234375 10.757812 46.4375 11.324219 47.488281 C 12.328125 49.367188 13.542969 50.835938 14.914062 51.820312 C 11.488281 51.089844 8.429688 49.378906 6.042969 47.003906 C 5.113281 46.0625 4.308594 45.058594 3.601562 43.964844 Z M 18.613281 15.8125 C 13.453125 15.8125 8.804688 17.890625 5.433594 21.269531 C 2.0625 24.652344 -0.0234375 29.292969 -0.0234375 34.429688 C -0.0234375 39.566406 2.054688 44.238281 5.433594 47.585938 C 8.804688 50.957031 13.453125 53.046875 18.613281 53.046875 C 23.753906 53.046875 28.390625 50.96875 31.773438 47.585938 C 35.144531 44.238281 37.230469 39.566406 37.230469 34.429688 C 37.230469 29.292969 35.152344 24.652344 31.773438 21.269531 C 28.390625 17.890625 23.742188 15.8125 18.613281 15.8125 Z M 33.597656 54.261719 L 33.597656 60.46875 L 42.941406 52.8125 C 50.355469 49.753906 55.21875 42.496094 55.21875 34.429688 C 55.21875 23.445312 46.3125 14.519531 35.308594 14.519531 C 32.125 14.519531 29.121094 15.28125 26.457031 16.597656 C 28.636719 17.582031 30.636719 18.917969 32.382812 20.652344 C 36.09375 24.363281 38.082031 29.058594 38.082031 34.417969 C 38.082031 39.601562 36.027344 44.515625 32.382812 48.183594 C 30.644531 49.917969 28.636719 51.289062 26.457031 52.238281 C 28.636719 53.332031 31.054688 54.039062 33.597656 54.261719 Z M 33.597656 54.261719 " fill-opacity="1" fill-rule="nonzero"/></g><g fill="#000000" fill-opacity="1"><g transform="translate(57.903878, 36.609486)"><g><path d="M 2.882812 -12.617188 C 2.59375 -12.617188 2.453125 -12.4375 2.488281 -12.148438 L 2.683594 -10.292969 C 2.703125 -10.09375 2.8125 -9.96875 2.917969 -9.96875 C 2.972656 -9.96875 3.011719 -9.984375 3.0625 -10.019531 L 6.234375 -12.347656 L 7.625 -12.347656 L 7.625 -4.199219 C 7.625 -0.992188 6.992188 -0.0703125 5.605469 -0.0703125 L 5.082031 -0.0703125 L 2.234375 -4.957031 C 2.074219 -5.226562 1.890625 -5.425781 1.730469 -5.425781 L 1.695312 -5.425781 C 1.496094 -5.425781 1.441406 -5.300781 1.441406 -5.101562 L 1.441406 -0.539062 C 1.441406 -0.253906 1.550781 -0.109375 1.839844 -0.0703125 L 5.082031 0.179688 L 5.605469 0.179688 C 9.425781 0.179688 11.011719 -1.207031 11.011719 -4.199219 L 11.011719 -12.148438 C 11.011719 -12.4375 10.90625 -12.617188 10.597656 -12.617188 Z M 2.882812 -12.617188 "/></g></g></g><g fill="#000000" fill-opacity="1"><g transform="translate(69.997918, 36.609486)"><g><path d="M 6.433594 -9.480469 C 6.328125 -9.734375 6.09375 -9.949219 5.785156 -9.949219 L 4.867188 -9.949219 C 4.613281 -9.949219 4.363281 -9.734375 4.253906 -9.480469 L 0.214844 -0.46875 C 0.125 -0.234375 0.214844 0 0.503906 0 L 3.101562 0 C 3.480469 0 3.621094 -0.199219 3.496094 -0.46875 L 2.164062 -3.441406 L 5.75 -3.441406 L 7.082031 -0.46875 C 7.210938 -0.199219 7.40625 0 7.730469 0 L 10.183594 0 C 10.472656 0 10.5625 -0.234375 10.472656 -0.46875 Z M 5.640625 -3.695312 L 1.964844 -3.695312 L 3.785156 -7.859375 Z M 5.640625 -3.695312 "/></g></g></g><g fill="#000000" fill-opacity="1"><g transform="translate(80.686074, 36.609486)"><g><path d="M 6.253906 -6.289062 C 4.792969 -6.703125 4.199219 -7.480469 4.199219 -8.398438 C 4.199219 -9.390625 5.046875 -9.878906 5.984375 -9.878906 L 6.398438 -9.878906 L 8.472656 -7.226562 C 8.6875 -6.9375 8.851562 -6.757812 9.046875 -6.757812 L 9.175781 -6.757812 C 9.371094 -6.757812 9.425781 -6.886719 9.425781 -7.082031 L 9.410156 -9.425781 C 9.410156 -9.714844 9.316406 -9.859375 9.011719 -9.894531 L 6.921875 -10.128906 L 5.894531 -10.128906 C 2.792969 -10.128906 1.171875 -8.941406 1.171875 -7.550781 C 1.171875 -5.910156 1.839844 -5.011719 5.117188 -4.019531 C 6.722656 -3.53125 6.957031 -3.011719 6.957031 -2 C 6.957031 -1.007812 6.363281 -0.0703125 5.171875 -0.0703125 L 4.8125 -0.0703125 L 2.199219 -3.605469 C 1.984375 -3.894531 1.820312 -4.074219 1.621094 -4.074219 L 1.496094 -4.074219 C 1.296875 -4.074219 1.242188 -3.945312 1.242188 -3.75 L 1.261719 -0.46875 C 1.261719 -0.179688 1.371094 -0.0195312 1.65625 0 L 4.289062 0.179688 L 5.261719 0.179688 C 8.164062 0.179688 9.949219 -0.722656 9.949219 -2.882812 C 9.949219 -4.777344 8.742188 -5.585938 6.253906 -6.289062 Z M 6.253906 -6.289062 "/></g></g></g><g fill="#000000" fill-opacity="1"><g transform="translate(91.536447, 36.609486)"><g><path d="M 6.433594 -9.480469 C 6.328125 -9.734375 6.09375 -9.949219 5.785156 -9.949219 L 4.867188 -9.949219 C 4.613281 -9.949219 4.363281 -9.734375 4.253906 -9.480469 L 0.214844 -0.46875 C 0.125 -0.234375 0.214844 0 0.503906 0 L 3.101562 0 C 3.480469 0 3.621094 -0.199219 3.496094 -0.46875 L 2.164062 -3.441406 L 5.75 -3.441406 L 7.082031 -0.46875 C 7.210938 -0.199219 7.40625 0 7.730469 0 L 10.183594 0 C 10.472656 0 10.5625 -0.234375 10.472656 -0.46875 Z M 5.640625 -3.695312 L 1.964844 -3.695312 L 3.785156 -7.859375 Z M 5.640625 -3.695312 "/></g></g></g><g fill="#000000" fill-opacity="1"><g transform="translate(102.224604, 36.609486)"><g/></g></g><g fill="#000000" fill-opacity="1"><g transform="translate(107.631765, 36.609486)"><g><path d="M 9.175781 -4.488281 L 7.769531 -0.359375 L 3.785156 -12.148438 C 3.695312 -12.417969 3.515625 -12.617188 3.136719 -12.617188 L 0.503906 -12.617188 C 0.214844 -12.617188 0.144531 -12.382812 0.214844 -12.148438 L 4.164062 -0.46875 C 4.253906 -0.214844 4.507812 0 4.8125 0 L 7.730469 0 C 7.859375 0 7.929688 -0.0898438 7.964844 -0.199219 L 9.300781 -4.128906 L 10.542969 -0.46875 C 10.632812 -0.214844 10.886719 0 11.191406 0 L 14.113281 0 C 14.238281 0 14.3125 -0.0898438 14.347656 -0.199219 L 17.394531 -9.175781 C 17.429688 -9.28125 17.394531 -9.410156 17.355469 -9.515625 L 16.492188 -12.148438 C 16.402344 -12.417969 16.222656 -12.617188 15.84375 -12.617188 L 13.210938 -12.617188 C 12.921875 -12.617188 12.851562 -12.382812 12.921875 -12.148438 L 15.5 -4.46875 L 14.148438 -0.359375 L 10.164062 -12.148438 C 10.074219 -12.417969 9.894531 -12.617188 9.515625 -12.617188 L 6.886719 -12.617188 C 6.597656 -12.617188 6.523438 -12.382812 6.597656 -12.148438 Z M 9.175781 -4.488281 "/></g></g></g><g fill="#000000" fill-opacity="1"><g transform="translate(125.223081, 36.609486)"><g><path d="M 1.839844 -9.949219 C 1.550781 -9.949219 1.441406 -9.769531 1.441406 -9.480469 L 1.441406 -0.46875 C 1.441406 -0.179688 1.550781 0 1.839844 0 L 8.957031 0 C 9.210938 0 9.355469 -0.179688 9.460938 -0.46875 L 10.578125 -3.261719 C 10.617188 -3.351562 10.652344 -3.441406 10.5625 -3.515625 L 10.34375 -3.675781 C 10.308594 -3.714844 10.273438 -3.714844 10.238281 -3.714844 C 10.183594 -3.714844 10.128906 -3.675781 10.058594 -3.640625 L 5.226562 -0.253906 L 4.523438 -0.253906 L 4.523438 -4.957031 L 8.382812 -4.867188 L 8.382812 -5.300781 L 4.523438 -5.207031 L 4.523438 -9.695312 L 5.226562 -9.695312 L 8.328125 -7.082031 C 8.578125 -6.886719 8.886719 -6.652344 9.136719 -6.652344 L 9.246094 -6.652344 C 9.535156 -6.652344 9.644531 -6.832031 9.644531 -7.121094 L 9.644531 -9.480469 C 9.644531 -9.769531 9.535156 -9.949219 9.246094 -9.949219 Z M 1.839844 -9.949219 "/></g></g></g><g fill="#000000" fill-opacity="1"><g transform="translate(136.127541, 36.609486)"><g><path d="M 9.625 -6.722656 L 9.679688 -6.796875 C 9.75 -9.136719 8.542969 -9.949219 4.558594 -9.949219 L 1.839844 -9.949219 C 1.550781 -9.949219 1.441406 -9.769531 1.441406 -9.480469 L 1.441406 -0.46875 C 1.441406 -0.179688 1.550781 0 1.839844 0 L 5.027344 0 C 9.136719 0 10.34375 -0.628906 10.34375 -2.902344 C 10.34375 -4.832031 8.667969 -5.300781 6.144531 -5.300781 Z M 4.453125 -5.066406 C 6.398438 -5.066406 7.316406 -4.453125 7.316406 -2.648438 C 7.316406 -1.226562 6.398438 -0.253906 4.667969 -0.253906 L 4.34375 -0.253906 L 4.34375 -5.066406 Z M 4.558594 -9.695312 C 6.199219 -9.695312 7.171875 -9.226562 7.171875 -7.425781 C 7.171875 -6.578125 6.398438 -5.316406 4.453125 -5.316406 L 4.34375 -5.316406 L 4.34375 -9.695312 Z M 4.558594 -9.695312 "/></g></g></g><g fill="#141414" fill-opacity="1"><g transform="translate(65.095317, 46.725308)"><g><path d="M 2.40625 -2.5625 C 2.40625 -2.476562 2.390625 -2.394531 2.359375 -2.3125 C 2.335938 -2.226562 2.300781 -2.148438 2.25 -2.078125 C 2.195312 -2.015625 2.128906 -1.953125 2.046875 -1.890625 C 1.972656 -1.835938 1.882812 -1.800781 1.78125 -1.78125 L 1.78125 -1.75 C 1.875 -1.738281 1.960938 -1.710938 2.046875 -1.671875 C 2.128906 -1.640625 2.203125 -1.585938 2.265625 -1.515625 C 2.335938 -1.453125 2.394531 -1.375 2.4375 -1.28125 C 2.476562 -1.1875 2.5 -1.070312 2.5 -0.9375 C 2.5 -0.769531 2.460938 -0.625 2.390625 -0.5 C 2.316406 -0.375 2.222656 -0.269531 2.109375 -0.1875 C 1.992188 -0.113281 1.863281 -0.0546875 1.71875 -0.015625 C 1.570312 0.015625 1.421875 0.03125 1.265625 0.03125 C 1.210938 0.03125 1.148438 0.03125 1.078125 0.03125 C 1.003906 0.03125 0.925781 0.03125 0.84375 0.03125 C 0.769531 0.03125 0.691406 0.0234375 0.609375 0.015625 C 0.535156 0.00390625 0.46875 -0.0078125 0.40625 -0.03125 L 0.40625 -3.28125 C 0.519531 -3.300781 0.65625 -3.316406 0.8125 -3.328125 C 0.96875 -3.347656 1.132812 -3.359375 1.3125 -3.359375 C 1.4375 -3.359375 1.5625 -3.347656 1.6875 -3.328125 C 1.820312 -3.304688 1.941406 -3.265625 2.046875 -3.203125 C 2.148438 -3.140625 2.234375 -3.054688 2.296875 -2.953125 C 2.367188 -2.847656 2.40625 -2.71875 2.40625 -2.5625 Z M 1.296875 -0.296875 C 1.398438 -0.296875 1.5 -0.304688 1.59375 -0.328125 C 1.6875 -0.359375 1.769531 -0.398438 1.84375 -0.453125 C 1.914062 -0.503906 1.972656 -0.566406 2.015625 -0.640625 C 2.054688 -0.710938 2.078125 -0.800781 2.078125 -0.90625 C 2.078125 -1.039062 2.050781 -1.144531 2 -1.21875 C 1.945312 -1.300781 1.878906 -1.363281 1.796875 -1.40625 C 1.710938 -1.457031 1.617188 -1.488281 1.515625 -1.5 C 1.410156 -1.519531 1.304688 -1.53125 1.203125 -1.53125 L 0.796875 -1.53125 L 0.796875 -0.34375 C 0.816406 -0.332031 0.847656 -0.320312 0.890625 -0.3125 C 0.929688 -0.3125 0.972656 -0.3125 1.015625 -0.3125 C 1.066406 -0.3125 1.117188 -0.304688 1.171875 -0.296875 C 1.222656 -0.296875 1.265625 -0.296875 1.296875 -0.296875 Z M 1.046875 -1.859375 C 1.097656 -1.859375 1.160156 -1.859375 1.234375 -1.859375 C 1.304688 -1.859375 1.367188 -1.863281 1.421875 -1.875 C 1.492188 -1.894531 1.5625 -1.921875 1.625 -1.953125 C 1.695312 -1.992188 1.757812 -2.039062 1.8125 -2.09375 C 1.863281 -2.144531 1.90625 -2.203125 1.9375 -2.265625 C 1.96875 -2.328125 1.984375 -2.394531 1.984375 -2.46875 C 1.984375 -2.570312 1.960938 -2.65625 1.921875 -2.71875 C 1.878906 -2.789062 1.828125 -2.847656 1.765625 -2.890625 C 1.703125 -2.929688 1.625 -2.960938 1.53125 -2.984375 C 1.445312 -3.003906 1.363281 -3.015625 1.28125 -3.015625 C 1.175781 -3.015625 1.078125 -3.007812 0.984375 -3 C 0.898438 -3 0.835938 -2.992188 0.796875 -2.984375 L 0.796875 -1.859375 Z M 1.046875 -1.859375 "/></g></g></g><g fill="#141414" fill-opacity="1"><g transform="translate(69.334547, 46.725308)"><g><path d="M 0.40625 -3.3125 L 2.203125 -3.3125 L 2.203125 -2.96875 L 0.796875 -2.96875 L 0.796875 -1.875 L 2.09375 -1.875 L 2.09375 -1.53125 L 0.796875 -1.53125 L 0.796875 -0.34375 L 2.234375 -0.34375 L 2.234375 0 L 0.40625 0 Z M 0.40625 -3.3125 "/></g></g></g><g fill="#141414" fill-opacity="1"><g transform="translate(73.346196, 46.725308)"><g><path d="M 0.40625 -3.28125 C 0.519531 -3.300781 0.65625 -3.316406 0.8125 -3.328125 C 0.96875 -3.347656 1.113281 -3.359375 1.25 -3.359375 C 1.394531 -3.359375 1.53125 -3.335938 1.65625 -3.296875 C 1.789062 -3.265625 1.90625 -3.210938 2 -3.140625 C 2.101562 -3.078125 2.179688 -2.984375 2.234375 -2.859375 C 2.296875 -2.742188 2.328125 -2.601562 2.328125 -2.4375 C 2.328125 -2.175781 2.253906 -1.960938 2.109375 -1.796875 C 1.972656 -1.640625 1.796875 -1.535156 1.578125 -1.484375 L 1.8125 -1.3125 L 2.625 0 L 2.171875 0 L 1.265625 -1.4375 L 0.796875 -1.5 L 0.796875 0 L 0.40625 0 Z M 1.25 -3.015625 C 1.207031 -3.015625 1.164062 -3.015625 1.125 -3.015625 C 1.082031 -3.015625 1.039062 -3.007812 1 -3 C 0.957031 -3 0.914062 -2.992188 0.875 -2.984375 C 0.84375 -2.984375 0.816406 -2.984375 0.796875 -2.984375 L 0.796875 -1.765625 L 1.171875 -1.765625 C 1.378906 -1.765625 1.554688 -1.816406 1.703125 -1.921875 C 1.847656 -2.023438 1.921875 -2.191406 1.921875 -2.421875 C 1.921875 -2.585938 1.859375 -2.726562 1.734375 -2.84375 C 1.617188 -2.957031 1.457031 -3.015625 1.25 -3.015625 Z M 1.25 -3.015625 "/></g></g></g><g fill="#141414" fill-opacity="1"><g transform="translate(77.637579, 46.725308)"><g><path d="M 1.015625 -1.53125 L 0.796875 -1.53125 L 0.796875 0 L 0.40625 0 L 0.40625 -3.3125 L 0.796875 -3.3125 L 0.796875 -1.765625 L 1.015625 -1.84375 L 2.125 -3.3125 L 2.578125 -3.3125 L 1.46875 -1.890625 L 1.265625 -1.734375 L 1.515625 -1.546875 L 2.71875 0 L 2.21875 0 Z M 1.015625 -1.53125 "/></g></g></g><g fill="#141414" fill-opacity="1"><g transform="translate(82.00008, 46.725308)"><g><path d="M 2.3125 -3.3125 L 2.6875 -3.3125 L 2.6875 -1.109375 C 2.6875 -0.910156 2.660156 -0.738281 2.609375 -0.59375 C 2.554688 -0.445312 2.476562 -0.328125 2.375 -0.234375 C 2.28125 -0.140625 2.164062 -0.0664062 2.03125 -0.015625 C 1.894531 0.0234375 1.75 0.046875 1.59375 0.046875 C 1.195312 0.046875 0.898438 -0.0390625 0.703125 -0.21875 C 0.503906 -0.394531 0.40625 -0.664062 0.40625 -1.03125 L 0.40625 -3.3125 L 0.796875 -3.3125 L 0.796875 -1.21875 C 0.796875 -1.050781 0.8125 -0.90625 0.84375 -0.78125 C 0.875 -0.664062 0.921875 -0.570312 0.984375 -0.5 C 1.054688 -0.4375 1.140625 -0.390625 1.234375 -0.359375 C 1.335938 -0.328125 1.457031 -0.3125 1.59375 -0.3125 C 1.84375 -0.3125 2.023438 -0.378906 2.140625 -0.515625 C 2.253906 -0.660156 2.3125 -0.894531 2.3125 -1.21875 Z M 2.3125 -3.3125 "/></g></g></g><g fill="#141414" fill-opacity="1"><g transform="translate(86.561714, 46.725308)"><g><path d="M 1.984375 -0.921875 L 0.75 -0.921875 L 0.421875 0 L 0.03125 0 L 1.296875 -3.359375 L 1.46875 -3.359375 L 2.734375 0 L 2.3125 0 Z M 0.890625 -1.265625 L 1.859375 -1.265625 L 1.484375 -2.265625 L 1.375 -2.765625 L 1.25 -2.265625 Z M 0.890625 -1.265625 "/></g></g></g><g fill="#141414" fill-opacity="1"><g transform="translate(90.805682, 46.725308)"><g><path d="M 2.359375 0 L 0.40625 0 L 0.40625 -3.3125 L 0.796875 -3.3125 L 0.796875 -0.34375 L 2.359375 -0.34375 Z M 2.359375 0 "/></g></g></g><g fill="#141414" fill-opacity="1"><g transform="translate(94.727247, 46.725308)"><g><path d="M 0.5 -3.3125 L 0.890625 -3.3125 L 0.890625 0 L 0.5 0 Z M 0.5 -3.3125 "/></g></g></g><g fill="#141414" fill-opacity="1"><g transform="translate(97.577296, 46.725308)"><g><path d="M 2.546875 -2.96875 L 1.515625 -2.96875 L 1.515625 0 L 1.125 0 L 1.125 -2.96875 L 0.078125 -2.96875 L 0.078125 -3.3125 L 2.546875 -3.3125 Z M 2.546875 -2.96875 "/></g></g></g><g fill="#141414" fill-opacity="1"><g transform="translate(101.679029, 46.725308)"><g><path d="M 1.984375 -0.921875 L 0.75 -0.921875 L 0.421875 0 L 0.03125 0 L 1.296875 -3.359375 L 1.46875 -3.359375 L 2.734375 0 L 2.3125 0 Z M 0.890625 -1.265625 L 1.859375 -1.265625 L 1.484375 -2.265625 L 1.375 -2.765625 L 1.25 -2.265625 Z M 0.890625 -1.265625 "/></g></g></g><g fill="#141414" fill-opacity="1"><g transform="translate(105.922998, 46.725308)"><g><path d="M 1.90625 -0.84375 C 1.90625 -0.976562 1.863281 -1.085938 1.78125 -1.171875 C 1.695312 -1.253906 1.597656 -1.328125 1.484375 -1.390625 C 1.367188 -1.453125 1.238281 -1.507812 1.09375 -1.5625 C 0.957031 -1.625 0.828125 -1.695312 0.703125 -1.78125 C 0.585938 -1.863281 0.488281 -1.960938 0.40625 -2.078125 C 0.332031 -2.191406 0.296875 -2.34375 0.296875 -2.53125 C 0.296875 -2.789062 0.382812 -2.992188 0.5625 -3.140625 C 0.75 -3.296875 1.003906 -3.375 1.328125 -3.375 C 1.523438 -3.375 1.703125 -3.359375 1.859375 -3.328125 C 2.015625 -3.296875 2.140625 -3.257812 2.234375 -3.21875 L 2.109375 -2.875 C 2.035156 -2.90625 1.925781 -2.9375 1.78125 -2.96875 C 1.644531 -3 1.488281 -3.015625 1.3125 -3.015625 C 1.101562 -3.015625 0.945312 -2.96875 0.84375 -2.875 C 0.738281 -2.78125 0.6875 -2.671875 0.6875 -2.546875 C 0.6875 -2.421875 0.722656 -2.316406 0.796875 -2.234375 C 0.878906 -2.160156 0.976562 -2.085938 1.09375 -2.015625 C 1.21875 -1.953125 1.347656 -1.890625 1.484375 -1.828125 C 1.628906 -1.765625 1.757812 -1.691406 1.875 -1.609375 C 1.988281 -1.523438 2.085938 -1.425781 2.171875 -1.3125 C 2.253906 -1.195312 2.296875 -1.050781 2.296875 -0.875 C 2.296875 -0.726562 2.269531 -0.597656 2.21875 -0.484375 C 2.164062 -0.378906 2.085938 -0.285156 1.984375 -0.203125 C 1.890625 -0.117188 1.773438 -0.0507812 1.640625 0 C 1.503906 0.0390625 1.347656 0.0625 1.171875 0.0625 C 0.929688 0.0625 0.734375 0.0390625 0.578125 0 C 0.421875 -0.03125 0.300781 -0.0703125 0.21875 -0.125 L 0.34375 -0.46875 C 0.414062 -0.425781 0.523438 -0.382812 0.671875 -0.34375 C 0.816406 -0.3125 0.976562 -0.296875 1.15625 -0.296875 C 1.257812 -0.296875 1.351562 -0.304688 1.4375 -0.328125 C 1.53125 -0.347656 1.609375 -0.378906 1.671875 -0.421875 C 1.742188 -0.472656 1.800781 -0.53125 1.84375 -0.59375 C 1.882812 -0.664062 1.90625 -0.75 1.90625 -0.84375 Z M 1.90625 -0.84375 "/></g></g></g><g fill="#141414" fill-opacity="1"><g transform="translate(109.910943, 46.725308)"><g/></g></g><g fill="#141414" fill-opacity="1"><g transform="translate(112.647201, 46.725308)"><g><path d="M 0.40625 -3.3125 C 0.46875 -3.320312 0.535156 -3.328125 0.609375 -3.328125 C 0.679688 -3.335938 0.753906 -3.34375 0.828125 -3.34375 C 0.910156 -3.34375 0.988281 -3.34375 1.0625 -3.34375 C 1.144531 -3.351562 1.21875 -3.359375 1.28125 -3.359375 C 1.550781 -3.359375 1.78125 -3.316406 1.96875 -3.234375 C 2.164062 -3.148438 2.328125 -3.035156 2.453125 -2.890625 C 2.578125 -2.742188 2.671875 -2.566406 2.734375 -2.359375 C 2.796875 -2.148438 2.828125 -1.925781 2.828125 -1.6875 C 2.828125 -1.457031 2.796875 -1.238281 2.734375 -1.03125 C 2.679688 -0.820312 2.59375 -0.640625 2.46875 -0.484375 C 2.34375 -0.328125 2.175781 -0.195312 1.96875 -0.09375 C 1.769531 0 1.523438 0.046875 1.234375 0.046875 C 1.191406 0.046875 1.128906 0.0390625 1.046875 0.03125 C 0.960938 0.03125 0.878906 0.03125 0.796875 0.03125 C 0.710938 0.03125 0.632812 0.0234375 0.5625 0.015625 C 0.488281 0.015625 0.4375 0.0078125 0.40625 0 Z M 1.296875 -3 C 1.253906 -3 1.207031 -3 1.15625 -3 C 1.113281 -3 1.066406 -2.992188 1.015625 -2.984375 C 0.972656 -2.984375 0.929688 -2.984375 0.890625 -2.984375 C 0.847656 -2.984375 0.816406 -2.984375 0.796875 -2.984375 L 0.796875 -0.328125 C 0.804688 -0.328125 0.832031 -0.320312 0.875 -0.3125 C 0.925781 -0.3125 0.972656 -0.3125 1.015625 -0.3125 C 1.066406 -0.3125 1.113281 -0.3125 1.15625 -0.3125 C 1.195312 -0.3125 1.226562 -0.3125 1.25 -0.3125 C 1.46875 -0.3125 1.648438 -0.347656 1.796875 -0.421875 C 1.953125 -0.492188 2.070312 -0.59375 2.15625 -0.71875 C 2.25 -0.851562 2.316406 -1.003906 2.359375 -1.171875 C 2.398438 -1.335938 2.421875 -1.507812 2.421875 -1.6875 C 2.421875 -1.832031 2.398438 -1.984375 2.359375 -2.140625 C 2.328125 -2.296875 2.265625 -2.4375 2.171875 -2.5625 C 2.085938 -2.695312 1.972656 -2.800781 1.828125 -2.875 C 1.691406 -2.957031 1.515625 -3 1.296875 -3 Z M 1.296875 -3 "/></g></g></g><g fill="#141414" fill-opacity="1"><g transform="translate(117.218315, 46.725308)"><g><path d="M 1.984375 -0.921875 L 0.75 -0.921875 L 0.421875 0 L 0.03125 0 L 1.296875 -3.359375 L 1.46875 -3.359375 L 2.734375 0 L 2.3125 0 Z M 0.890625 -1.265625 L 1.859375 -1.265625 L 1.484375 -2.265625 L 1.375 -2.765625 L 1.25 -2.265625 Z M 0.890625 -1.265625 "/></g></g></g><g fill="#141414" fill-opacity="1"><g transform="translate(121.462282, 46.725308)"><g><path d="M 1 -2.171875 L 0.75 -2.640625 L 0.71875 -2.640625 L 0.765625 -2.171875 L 0.765625 0 L 0.40625 0 L 0.40625 -3.359375 L 0.609375 -3.359375 L 2.203125 -1.15625 L 2.4375 -0.703125 L 2.46875 -0.703125 L 2.421875 -1.15625 L 2.421875 -3.3125 L 2.78125 -3.3125 L 2.78125 0.046875 L 2.578125 0.046875 Z M 1 -2.171875 "/></g></g></g><g fill="#141414" fill-opacity="1"><g transform="translate(126.123475, 46.725308)"><g/></g></g><g fill="#141414" fill-opacity="1"><g transform="translate(128.859733, 46.725308)"><g><path d="M 1.90625 -0.84375 C 1.90625 -0.976562 1.863281 -1.085938 1.78125 -1.171875 C 1.695312 -1.253906 1.597656 -1.328125 1.484375 -1.390625 C 1.367188 -1.453125 1.238281 -1.507812 1.09375 -1.5625 C 0.957031 -1.625 0.828125 -1.695312 0.703125 -1.78125 C 0.585938 -1.863281 0.488281 -1.960938 0.40625 -2.078125 C 0.332031 -2.191406 0.296875 -2.34375 0.296875 -2.53125 C 0.296875 -2.789062 0.382812 -2.992188 0.5625 -3.140625 C 0.75 -3.296875 1.003906 -3.375 1.328125 -3.375 C 1.523438 -3.375 1.703125 -3.359375 1.859375 -3.328125 C 2.015625 -3.296875 2.140625 -3.257812 2.234375 -3.21875 L 2.109375 -2.875 C 2.035156 -2.90625 1.925781 -2.9375 1.78125 -2.96875 C 1.644531 -3 1.488281 -3.015625 1.3125 -3.015625 C 1.101562 -3.015625 0.945312 -2.96875 0.84375 -2.875 C 0.738281 -2.78125 0.6875 -2.671875 0.6875 -2.546875 C 0.6875 -2.421875 0.722656 -2.316406 0.796875 -2.234375 C 0.878906 -2.160156 0.976562 -2.085938 1.09375 -2.015625 C 1.21875 -1.953125 1.347656 -1.890625 1.484375 -1.828125 C 1.628906 -1.765625 1.757812 -1.691406 1.875 -1.609375 C 1.988281 -1.523438 2.085938 -1.425781 2.171875 -1.3125 C 2.253906 -1.195312 2.296875 -1.050781 2.296875 -0.875 C 2.296875 -0.726562 2.269531 -0.597656 2.21875 -0.484375 C 2.164062 -0.378906 2.085938 -0.285156 1.984375 -0.203125 C 1.890625 -0.117188 1.773438 -0.0507812 1.640625 0 C 1.503906 0.0390625 1.347656 0.0625 1.171875 0.0625 C 0.929688 0.0625 0.734375 0.0390625 0.578125 0 C 0.421875 -0.03125 0.300781 -0.0703125 0.21875 -0.125 L 0.34375 -0.46875 C 0.414062 -0.425781 0.523438 -0.382812 0.671875 -0.34375 C 0.816406 -0.3125 0.976562 -0.296875 1.15625 -0.296875 C 1.257812 -0.296875 1.351562 -0.304688 1.4375 -0.328125 C 1.53125 -0.347656 1.609375 -0.378906 1.671875 -0.421875 C 1.742188 -0.472656 1.800781 -0.53125 1.84375 -0.59375 C 1.882812 -0.664062 1.90625 -0.75 1.90625 -0.84375 Z M 1.90625 -0.84375 "/></g></g></g><g fill="#141414" fill-opacity="1"><g transform="translate(132.847675, 46.725308)"><g><path d="M 0.40625 -3.3125 L 2.203125 -3.3125 L 2.203125 -2.96875 L 0.796875 -2.96875 L 0.796875 -1.875 L 2.09375 -1.875 L 2.09375 -1.53125 L 0.796875 -1.53125 L 0.796875 -0.34375 L 2.234375 -0.34375 L 2.234375 0 L 0.40625 0 Z M 0.40625 -3.3125 "/></g></g></g><g fill="#141414" fill-opacity="1"><g transform="translate(136.859321, 46.725308)"><g><path d="M 0.265625 -1.65625 C 0.265625 -2.207031 0.378906 -2.628906 0.609375 -2.921875 C 0.847656 -3.222656 1.179688 -3.375 1.609375 -3.375 C 1.847656 -3.375 2.050781 -3.332031 2.21875 -3.25 C 2.382812 -3.164062 2.523438 -3.046875 2.640625 -2.890625 C 2.753906 -2.742188 2.835938 -2.566406 2.890625 -2.359375 C 2.941406 -2.148438 2.96875 -1.914062 2.96875 -1.65625 C 2.96875 -1.101562 2.847656 -0.675781 2.609375 -0.375 C 2.378906 -0.0820312 2.046875 0.0625 1.609375 0.0625 C 1.378906 0.0625 1.179688 0.0195312 1.015625 -0.0625 C 0.847656 -0.144531 0.707031 -0.257812 0.59375 -0.40625 C 0.476562 -0.5625 0.394531 -0.742188 0.34375 -0.953125 C 0.289062 -1.160156 0.265625 -1.394531 0.265625 -1.65625 Z M 0.6875 -1.65625 C 0.6875 -1.46875 0.703125 -1.289062 0.734375 -1.125 C 0.773438 -0.96875 0.832031 -0.828125 0.90625 -0.703125 C 0.976562 -0.578125 1.070312 -0.476562 1.1875 -0.40625 C 1.3125 -0.332031 1.453125 -0.296875 1.609375 -0.296875 C 1.898438 -0.296875 2.128906 -0.40625 2.296875 -0.625 C 2.472656 -0.851562 2.5625 -1.195312 2.5625 -1.65625 C 2.5625 -1.832031 2.539062 -2.003906 2.5 -2.171875 C 2.46875 -2.335938 2.410156 -2.484375 2.328125 -2.609375 C 2.253906 -2.734375 2.15625 -2.832031 2.03125 -2.90625 C 1.914062 -2.976562 1.773438 -3.015625 1.609375 -3.015625 C 1.316406 -3.015625 1.085938 -2.90625 0.921875 -2.6875 C 0.765625 -2.46875 0.6875 -2.125 0.6875 -1.65625 Z M 0.6875 -1.65625 "/></g></g></g><g fill="#141414" fill-opacity="1"><g transform="translate(88.584743, 53.128483)"><g><path d="M 0.40625 -3.3125 L 2.203125 -3.3125 L 2.203125 -2.96875 L 0.796875 -2.96875 L 0.796875 -1.828125 L 2.109375 -1.828125 L 2.109375 -1.484375 L 0.796875 -1.484375 L 0.796875 0 L 0.40625 0 Z M 0.40625 -3.3125 "/></g></g></g><g fill="#141414" fill-opacity="1"><g transform="translate(92.506308, 53.128483)"><g><path d="M 0.40625 -3.28125 C 0.519531 -3.300781 0.65625 -3.316406 0.8125 -3.328125 C 0.96875 -3.347656 1.113281 -3.359375 1.25 -3.359375 C 1.394531 -3.359375 1.53125 -3.335938 1.65625 -3.296875 C 1.789062 -3.265625 1.90625 -3.210938 2 -3.140625 C 2.101562 -3.078125 2.179688 -2.984375 2.234375 -2.859375 C 2.296875 -2.742188 2.328125 -2.601562 2.328125 -2.4375 C 2.328125 -2.175781 2.253906 -1.960938 2.109375 -1.796875 C 1.972656 -1.640625 1.796875 -1.535156 1.578125 -1.484375 L 1.8125 -1.3125 L 2.625 0 L 2.171875 0 L 1.265625 -1.4375 L 0.796875 -1.5 L 0.796875 0 L 0.40625 0 Z M 1.25 -3.015625 C 1.207031 -3.015625 1.164062 -3.015625 1.125 -3.015625 C 1.082031 -3.015625 1.039062 -3.007812 1 -3 C 0.957031 -3 0.914062 -2.992188 0.875 -2.984375 C 0.84375 -2.984375 0.816406 -2.984375 0.796875 -2.984375 L 0.796875 -1.765625 L 1.171875 -1.765625 C 1.378906 -1.765625 1.554688 -1.816406 1.703125 -1.921875 C 1.847656 -2.023438 1.921875 -2.191406 1.921875 -2.421875 C 1.921875 -2.585938 1.859375 -2.726562 1.734375 -2.84375 C 1.617188 -2.957031 1.457031 -3.015625 1.25 -3.015625 Z M 1.25 -3.015625 "/></g></g></g><g fill="#141414" fill-opacity="1"><g transform="translate(96.797691, 53.128483)"><g><path d="M 0.40625 -3.3125 L 2.203125 -3.3125 L 2.203125 -2.96875 L 0.796875 -2.96875 L 0.796875 -1.875 L 2.09375 -1.875 L 2.09375 -1.53125 L 0.796875 -1.53125 L 0.796875 -0.34375 L 2.234375 -0.34375 L 2.234375 0 L 0.40625 0 Z M 0.40625 -3.3125 "/></g></g></g><g fill="#141414" fill-opacity="1"><g transform="translate(100.809339, 53.128483)"><g><path d="M 1 -2.171875 L 0.75 -2.640625 L 0.71875 -2.640625 L 0.765625 -2.171875 L 0.765625 0 L 0.40625 0 L 0.40625 -3.359375 L 0.609375 -3.359375 L 2.203125 -1.15625 L 2.4375 -0.703125 L 2.46875 -0.703125 L 2.421875 -1.15625 L 2.421875 -3.3125 L 2.78125 -3.3125 L 2.78125 0.046875 L 2.578125 0.046875 Z M 1 -2.171875 "/></g></g></g><g fill="#141414" fill-opacity="1"><g transform="translate(105.470535, 53.128483)"><g><path d="M 0.40625 -3.3125 C 0.46875 -3.320312 0.535156 -3.328125 0.609375 -3.328125 C 0.679688 -3.335938 0.753906 -3.34375 0.828125 -3.34375 C 0.910156 -3.34375 0.988281 -3.34375 1.0625 -3.34375 C 1.144531 -3.351562 1.21875 -3.359375 1.28125 -3.359375 C 1.550781 -3.359375 1.78125 -3.316406 1.96875 -3.234375 C 2.164062 -3.148438 2.328125 -3.035156 2.453125 -2.890625 C 2.578125 -2.742188 2.671875 -2.566406 2.734375 -2.359375 C 2.796875 -2.148438 2.828125 -1.925781 2.828125 -1.6875 C 2.828125 -1.457031 2.796875 -1.238281 2.734375 -1.03125 C 2.679688 -0.820312 2.59375 -0.640625 2.46875 -0.484375 C 2.34375 -0.328125 2.175781 -0.195312 1.96875 -0.09375 C 1.769531 0 1.523438 0.046875 1.234375 0.046875 C 1.191406 0.046875 1.128906 0.0390625 1.046875 0.03125 C 0.960938 0.03125 0.878906 0.03125 0.796875 0.03125 C 0.710938 0.03125 0.632812 0.0234375 0.5625 0.015625 C 0.488281 0.015625 0.4375 0.0078125 0.40625 0 Z M 1.296875 -3 C 1.253906 -3 1.207031 -3 1.15625 -3 C 1.113281 -3 1.066406 -2.992188 1.015625 -2.984375 C 0.972656 -2.984375 0.929688 -2.984375 0.890625 -2.984375 C 0.847656 -2.984375 0.816406 -2.984375 0.796875 -2.984375 L 0.796875 -0.328125 C 0.804688 -0.328125 0.832031 -0.320312 0.875 -0.3125 C 0.925781 -0.3125 0.972656 -0.3125 1.015625 -0.3125 C 1.066406 -0.3125 1.113281 -0.3125 1.15625 -0.3125 C 1.195312 -0.3125 1.226562 -0.3125 1.25 -0.3125 C 1.46875 -0.3125 1.648438 -0.347656 1.796875 -0.421875 C 1.953125 -0.492188 2.070312 -0.59375 2.15625 -0.71875 C 2.25 -0.851562 2.316406 -1.003906 2.359375 -1.171875 C 2.398438 -1.335938 2.421875 -1.507812 2.421875 -1.6875 C 2.421875 -1.832031 2.398438 -1.984375 2.359375 -2.140625 C 2.328125 -2.296875 2.265625 -2.4375 2.171875 -2.5625 C 2.085938 -2.695312 1.972656 -2.800781 1.828125 -2.875 C 1.691406 -2.957031 1.515625 -3 1.296875 -3 Z M 1.296875 -3 "/></g></g></g><g fill="#141414" fill-opacity="1"><g transform="translate(110.041652, 53.128483)"><g><path d="M 2.359375 0 L 0.40625 0 L 0.40625 -3.3125 L 0.796875 -3.3125 L 0.796875 -0.34375 L 2.359375 -0.34375 Z M 2.359375 0 "/></g></g></g><g fill="#141414" fill-opacity="1"><g transform="translate(113.963216, 53.128483)"><g><path d="M 1.125 -1.3125 L 0.03125 -3.3125 L 0.5 -3.3125 L 1.28125 -1.859375 L 1.359375 -1.578125 L 1.4375 -1.875 L 2.1875 -3.3125 L 2.609375 -3.3125 L 1.53125 -1.328125 L 1.53125 0 L 1.125 0 Z M 1.125 -1.3125 "/></g></g></g></svg>